<svg id="Layer_1" data-name="Layer 1" xmlns="http://www.w3.org/2000/svg" xmlns:xlink="http://www.w3.org/1999/xlink" viewBox="0 0 211.6 48.19"><defs><style>.cls-1{fill:none;}.cls-2{clip-path:url(#clip-path);}.cls-3{fill:#005b90;}.cls-4{fill:#b72f2a;}.cls-5{fill:#fff;}.cls-6{fill:#006193;}</style><clipPath id="clip-path"><rect class="cls-1" x="161.2" y="10.29" width="50.27" height="24.66"/></clipPath></defs><title>Artboard 1</title><g class="cls-2"><path class="cls-3" d="M191.73,16V30.85a2.36,2.36,0,0,0,2.52,1.55h17.29v2.31H193.21a5.08,5.08,0,0,1-2-.62,10,10,0,0,1-4,.72V32.62c1.25-.11,1.9-.35,1.9-.73V18.7h-1.8V16Z"/><path class="cls-3" d="M189.54,10.44a1.95,1.95,0,0,0,0,3.89,2,2,0,0,0,2-2,2,2,0,0,0-2-1.92"/><path class="cls-3" d="M183.49,23.28v-4H162.44v5.33h19.17c1.24,0,1.88-.45,1.88-1.37m-2.52-1c0,.38-.24.53-.72.53H165V21.2h16Z"/><path class="cls-3" d="M161.83,34.7h20.29c1.4,0,2.1-.51,2.1-1.46V25.92H161.83Zm12.65-6.8h6.92v1.47h-6.92Zm0,3.45h6.92v.84c0,.38-.24.53-.73.53h-6.19Zm-9.84-3.45h6.91v1.47h-6.91Zm0,3.45h6.91v1.37h-6.91Z"/><path class="cls-3" d="M174.48,12.61h0V11.38h-2.93v1.23h-10V16.4h.93V18H183.7V16.4h.83V12.61ZM181.94,16H164.11V14.6h17.83Z"/><path class="cls-3" d="M210.63,14.31h-7.37V16h8.21v2.13H208l-.88,2h3.5V22.3h-7.15V24h6.82v2.13h-6.82v1.69h8V30h-8v2h-3V30H192.8V27.85h7.67V26.16H194V24h6.49V22.3h-6.81V20.18h2.94l-.74-2H192.8V16h7.49V14.31h-6.63V12.18h6.63v-1.4h3v1.4h7.37Zm-6.47,5.87.87-2h-6.19l.74,2Z"/></g><rect class="cls-4" x="-0.08" y="-0.05" width="48.19" height="48.19"/><polygon class="cls-5" points="32.84 15.45 32.84 10.89 18.52 10.89 18.52 20.66 18.13 20.66 15.43 20.66 15.43 23.77 16.28 23.77 18.52 23.77 18.52 26.22 18.04 26.22 15.43 26.22 15.43 29.33 16.19 29.33 18.52 29.33 18.52 38.89 24.04 38.89 24.04 29.33 28.94 29.33 30.33 26.22 24.04 26.22 24.04 25.18 24.04 23.77 31.45 23.77 32.84 20.66 24.04 20.66 24.04 15.45 32.84 15.45"/><path class="cls-6" d="M73.23,19.22H78V34.45H73.23ZM91.81,34.41V32.27h-.06a5.69,5.69,0,0,1-5,2.56c-4.26,0-7.15-3.84-7.15-8.1s2.68-8,7.09-8a5.54,5.54,0,0,1,4.86,2.5h.06V10.83h4.29V34.41Zm0-7.62c0-2.3-1.25-4.47-3.93-4.47-2.48,0-3.76,2.21-3.76,4.53s1.34,4.53,3.87,4.53,3.82-2,3.82-4.59m21.3,0V28H101.87c.18,1.78,1.28,3.58,3.58,3.58a3.32,3.32,0,0,0,3.07-1.82l4.17.32c-1,3.13-3.85,4.77-7.45,4.77-4.63,0-7.84-3.16-7.84-8s3.21-8.1,7.84-8.1,7.84,3.15,7.84,8.1m-4.29-1.55a3.46,3.46,0,0,0-6.92,0Zm5.84-14V34.41h4.3V10.83h-4.3Zm8.54-1a2.59,2.59,0,0,0-2.51,2.54,2.51,2.51,0,1,0,2.51-2.54m-47.57,0a2.58,2.58,0,0,0-2.5,2.54,2.5,2.5,0,1,0,2.5-2.54M121,34.41h4.3V19.1H121Zm14.47-3.36a3.55,3.55,0,0,1-.86.09c-1.1,0-1.4-.33-1.4-1V22.38h2.26V19.1h-2.26V14.31h-4.29V19.1h-2v3.28h2V30.6c0,3.31,1.7,4,4.5,4a15.61,15.61,0,0,0,2.05-.18Zm5.33,7.72h4.48l7.42-19.67H148l-3.25,10.13h-.05L141.44,19.1h-4.7l5.75,15.31ZM56.65,23.48v2.66H58.9V34.5h4.74V26.14h4.47l1.19-2.66H63.64V21.92H70l1.18-2.67H63.64V14.78h7.54V10.89H58.9v8.36H56.65v2.67H58.9v1.56Z"/><path class="cls-6" d="M60.21,48H58.9V42.65h1.31Z"/><path class="cls-6" d="M65,48h-1.3V42.65H65l2,3v-3h1.3V48h-1.3L65,45Z"/><path class="cls-6" d="M73.73,48H72.42V43.71H71.18V42.65H75v1.06H73.73Z"/><path class="cls-6" d="M79.1,44.8h1.77v1.06H79.1V47h1.77V48H77.79V42.65h3.08v1.06H79.1Z"/><path class="cls-6" d="M85.46,48h-1.3V42.65H85.9a2.55,2.55,0,0,1,1.58.4,1.69,1.69,0,0,1,.58,1.37,1.58,1.58,0,0,1-1,1.63l1.19,2H86.64L85.46,46Zm.42-2.81c.54,0,.86-.28.86-.75a.72.72,0,0,0-.78-.75h-.5v1.5Z"/><path class="cls-6" d="M92.74,48h-1.3V42.65h1.3l2,3v-3H96V48h-1.3l-2-3.06Z"/><path class="cls-6" d="M100.53,47.26l-.23.77H98.9l1.78-5.38h1.66L104.11,48h-1.44l-.23-.77Zm1-3.07-.63,2h1.26Z"/><path class="cls-6" d="M108.84,48h-1.3V43.71h-1.25V42.65h3.79v1.06h-1.24Z"/><path class="cls-6" d="M114.86,48h-1.31V42.65h1.31Z"/><path class="cls-6" d="M123.58,45.35a2.85,2.85,0,0,1-5.7,0,2.83,2.83,0,0,1,.91-2.07,2.88,2.88,0,0,1,2-.75A2.73,2.73,0,0,1,123.58,45.35Zm-4.37,0a1.53,1.53,0,1,0,3.05,0,1.53,1.53,0,1,0-3.05,0Z"/><path class="cls-6" d="M127.75,48h-1.3V42.65h1.3l2,3v-3H131V48h-1.3l-2-3.06Z"/><path class="cls-6" d="M135.6,47.26l-.24.77H134l1.77-5.38h1.67L139.17,48h-1.43l-.24-.77Zm1-3.07-.63,2h1.26Z"/><path class="cls-6" d="M145.16,47V48H142.1V42.65h1.31V47Z"/></svg>